# xmcd
#
# Track frame offsets: 
#        150
#        21907
#        38427
#        52092
#        67627
#        84720
#        99932
#        118442
#        135527
#        151397
#        169190
#        182812
#
# Disc length: 2644 seconds
#
# Revision: 0
# Processed by: cddbd v1.5.2PL0 Copyright (c) Steve Scherf et al.
# Submitted via: ExactAudioCopy v1.0b3
#
DISCID=990a520c
DTITLE=龙飘飘 - 龙腔雅韵Vol.2 怎能再回头
DYEAR=1984
DGENRE=
TTITLE0=怎能再回头
TTITLE1=舞女
TTITLE2=等邮差
TTITLE3=你要忍耐
TTITLE4=海的誓言
TTITLE5=慕情
TTITLE6=来格来格来格通
TTITLE7=雨后的街道
TTITLE8=惜别的海岸
TTITLE9=记忆的天空
TTITLE10=沙滩往事
TTITLE11=为何你不来
EXTD=
EXTT0=
EXTT1=
EXTT2=
EXTT3=
EXTT4=
EXTT5=
EXTT6=
EXTT7=
EXTT8=
EXTT9=
EXTT10=
EXTT11=
PLAYORDER=
